<?xml version="1.0" encoding="utf-8"?>
<!-- Generator: Adobe Illustrator 16.0.0, SVG Export Plug-In . SVG Version: 6.00 Build 0)  -->
<!DOCTYPE svg PUBLIC "-//W3C//DTD SVG 1.1//EN" "http://www.w3.org/Graphics/SVG/1.1/DTD/svg11.dtd">
<svg version="1.1" xmlns="http://www.w3.org/2000/svg" xmlns:xlink="http://www.w3.org/1999/xlink" x="0px" y="0px"
	 width="122.687px" height="95.245px" viewBox="0 0 122.687 95.245" enable-background="new 0 0 122.687 95.245"
	 xml:space="preserve">
<g id="Layer_3">
</g>
<g id="Layer_4">
	<g>
		<g>
			<path fill="#2E3191" d="M20.636,0v10.354l-9.655,5.885l9.609,5.888l0.046,10.281L0,20.521v-8.655L20.636,0z"/>
		</g>
		<g>
			<path fill="#00ADEE" d="M22.716,44.457V34.104l9.657-5.887l-9.587-5.886l-0.07-10.282l20.662,11.889v8.654L22.716,44.457z"/>
		</g>
	</g>
</g>
<g id="Layer_1">
	<g>
		<path d="M47.688,65.964V44.167h11.285v21.797c0.188,3.305,1.605,5.004,4.254,5.098h0.633c2.859-0.094,4.289-2.074,4.289-5.941
			V44.167h11.25V65.12c0,10.195-5.18,15.574-15.539,16.137h-0.633c-4.125-0.234-7.43-1.219-9.914-2.953
			c-2.461,1.734-5.754,2.719-9.879,2.953h-0.633c-10.36-0.563-15.54-5.941-15.54-16.137V44.167h11.25V65.12
			c0,3.867,1.429,5.848,4.289,5.941h0.633C46.082,70.968,47.5,69.269,47.688,65.964z"/>
		<path d="M111.25,79.077c-0.75,0.328-1.301,0.551-1.652,0.668c-2.484,0.961-5.086,1.441-7.805,1.441
			c-3.586,0-6.973-0.832-10.16-2.496c-3.188-1.688-5.719-3.984-7.594-6.891c-1.898-2.953-2.848-6.246-2.848-9.879
			c0-2.742,0.551-5.297,1.652-7.664c1.102-2.344,2.613-4.383,4.535-6.117c1.898-1.734,4.102-3.059,6.609-3.973
			c2.508-0.961,5.109-1.441,7.805-1.441c2.672,0,5.273,0.469,7.805,1.406s4.734,2.273,6.609,4.008
			c1.969,1.781,3.492,3.82,4.57,6.117c1.102,2.367,1.652,4.922,1.652,7.664l-0.035,18.316l-11.145-0.105V79.077z M93.707,57.386
			c-0.867,1.383-1.301,2.895-1.301,4.535c0,2.484,0.938,4.629,2.813,6.434c1.852,1.781,4.043,2.672,6.574,2.672
			c2.555,0,4.758-0.891,6.609-2.672c1.875-1.805,2.813-3.949,2.813-6.434c0-1.641-0.434-3.152-1.301-4.535s-2.027-2.484-3.48-3.305
			c-1.43-0.797-2.977-1.195-4.641-1.195c-1.617,0-3.152,0.398-4.605,1.195C95.734,54.901,94.574,56.003,93.707,57.386z"/>
	</g>
	<g>
		<path d="M43.695,83.431l1.869-0.006v8.309l-1.869,0.023V83.431z"/>
		<path d="M45.857,83.431l1.869-0.006v8.309l-1.869,0.023V83.431z"/>
		<path d="M51.096,87.31c-0.098-0.066-0.225-0.104-0.381-0.111h-0.105c-0.477,0.02-0.715,0.352-0.715,0.996v3.551H48.02v-3.551
			c0-1.707,0.863-2.604,2.59-2.689h0.105c0.129,0.004,0.256,0.016,0.381,0.035V87.31z"/>
		<path d="M54.184,87.345h-1.236l0.422-1.605h0.814v-2.309l1.869,0.012v2.297h1.242l-0.416,1.605h-0.826v1.986
			c0,0.531,0.332,0.797,0.996,0.797c0.215,0,0.379-0.025,0.492-0.076l-0.539,1.863c-0.098,0.016-0.193,0.023-0.287,0.023
			c-0.559,0-1.023-0.09-1.395-0.27c-0.375-0.18-0.658-0.451-0.85-0.814c-0.191-0.359-0.287-0.818-0.287-1.377V87.345z"/>
		<path d="M64.156,87.438c0.176,0.395,0.264,0.816,0.264,1.266v0.053c0,0.02-0.002,0.041-0.006,0.064l-0.012,0.1h-0.727v0.012
			h-4.031c0.047,0.328,0.189,0.611,0.428,0.85c0.301,0.297,0.652,0.445,1.055,0.445c0.406,0,0.758-0.148,1.055-0.445l0.012-0.012
			l0.018-0.023l0.018-0.018l0.012-0.018l1.008,1.441c-0.289,0.234-0.582,0.412-0.879,0.533c-0.398,0.156-0.813,0.234-1.242,0.234
			c-0.582,0-1.123-0.139-1.623-0.416c-0.512-0.281-0.916-0.666-1.213-1.154c-0.305-0.488-0.457-1.037-0.457-1.646
			c0-0.457,0.088-0.879,0.264-1.266c0.176-0.391,0.418-0.73,0.727-1.02c0.313-0.297,0.664-0.521,1.055-0.674
			c0.402-0.156,0.818-0.234,1.248-0.234s0.844,0.078,1.242,0.234c0.395,0.152,0.748,0.375,1.061,0.668
			C63.738,86.698,63.98,87.04,64.156,87.438z M61.127,87.204c-0.262,0-0.508,0.066-0.738,0.199c-0.141,0.086-0.277,0.207-0.41,0.363
			h2.297c-0.133-0.156-0.27-0.277-0.41-0.363C61.635,87.271,61.389,87.204,61.127,87.204z"/>
		<path d="M69.33,87.556c-0.168-0.141-0.352-0.246-0.551-0.316c-0.207-0.07-0.426-0.105-0.656-0.105c-0.43,0-0.793,0.139-1.09,0.416
			c-0.301,0.277-0.451,0.621-0.451,1.031c0,0.32,0.064,0.607,0.193,0.861c0.125,0.254,0.311,0.455,0.557,0.604
			c0.238,0.152,0.514,0.229,0.826,0.229c0.461,0,0.855-0.146,1.184-0.439l1.025,1.301c-0.148,0.156-0.355,0.295-0.621,0.416
			c-0.27,0.121-0.547,0.211-0.832,0.27s-0.549,0.088-0.791,0.088c-0.68,0-1.279-0.143-1.799-0.428
			c-0.52-0.289-0.918-0.668-1.195-1.137c-0.277-0.477-0.416-0.986-0.416-1.529c0-0.496,0.084-0.945,0.252-1.348
			c0.172-0.41,0.408-0.762,0.709-1.055c0.297-0.285,0.658-0.51,1.084-0.674c0.422-0.16,0.877-0.24,1.365-0.24
			c0.398,0,0.787,0.063,1.166,0.188c0.383,0.129,0.721,0.311,1.014,0.545L69.33,87.556z"/>
		<path d="M72.535,83.425v2.672c0.18-0.184,0.402-0.328,0.668-0.434c0.27-0.105,0.543-0.158,0.82-0.158
			c1.504,0,2.256,0.881,2.256,2.643v3.598l-1.875,0.006v-3.475c0-0.359-0.082-0.629-0.246-0.809s-0.395-0.27-0.691-0.27
			c-0.289,0-0.516,0.09-0.68,0.27c-0.168,0.18-0.252,0.449-0.252,0.809v3.469l-1.875,0.012v-8.326L72.535,83.425z"/>
		<path d="M79.162,87.204c-0.477,0.02-0.715,0.352-0.715,0.996v3.545h-1.875V88.2c0-1.707,0.863-2.604,2.59-2.689h0.105
			c1.727,0.086,2.59,0.982,2.59,2.689v3.545h-1.875V88.2c0-0.645-0.238-0.977-0.715-0.996H79.162z"/>
		<path d="M83.891,91.517c-0.531-0.281-0.953-0.666-1.266-1.154c-0.316-0.492-0.475-1.043-0.475-1.652
			c0-0.457,0.092-0.883,0.275-1.277s0.436-0.736,0.756-1.025c0.324-0.293,0.693-0.518,1.107-0.674
			c0.422-0.156,0.854-0.234,1.295-0.234c0.445,0,0.879,0.078,1.301,0.234c0.41,0.148,0.779,0.371,1.107,0.668
			c0.324,0.297,0.576,0.641,0.756,1.031c0.184,0.395,0.275,0.82,0.275,1.277c0,0.465-0.09,0.891-0.27,1.277
			c-0.18,0.391-0.434,0.736-0.762,1.037c-0.332,0.297-0.701,0.521-1.107,0.674c-0.41,0.16-0.844,0.24-1.301,0.24
			C84.986,91.938,84.422,91.798,83.891,91.517z M84.488,89.788c0.309,0.301,0.674,0.451,1.096,0.451c0.426,0,0.793-0.15,1.102-0.451
			c0.313-0.301,0.469-0.66,0.469-1.078c0-0.273-0.072-0.525-0.217-0.756s-0.338-0.414-0.58-0.551
			c-0.238-0.137-0.496-0.205-0.773-0.205c-0.27,0-0.525,0.068-0.768,0.205s-0.436,0.32-0.58,0.551s-0.217,0.482-0.217,0.756
			C84.02,89.128,84.176,89.487,84.488,89.788z"/>
		<path d="M89.316,83.431l1.869-0.006v8.309l-1.869,0.023V83.431z"/>
		<path d="M93.219,91.517c-0.531-0.281-0.953-0.666-1.266-1.154c-0.316-0.492-0.475-1.043-0.475-1.652
			c0-0.457,0.092-0.883,0.275-1.277s0.436-0.736,0.756-1.025c0.324-0.293,0.693-0.518,1.107-0.674
			c0.422-0.156,0.854-0.234,1.295-0.234c0.445,0,0.879,0.078,1.301,0.234c0.41,0.148,0.779,0.371,1.107,0.668
			c0.324,0.297,0.576,0.641,0.756,1.031c0.184,0.395,0.275,0.82,0.275,1.277c0,0.465-0.09,0.891-0.27,1.277
			c-0.18,0.391-0.434,0.736-0.762,1.037c-0.332,0.297-0.701,0.521-1.107,0.674c-0.41,0.16-0.844,0.24-1.301,0.24
			C94.314,91.938,93.75,91.798,93.219,91.517z M93.816,89.788c0.309,0.301,0.674,0.451,1.096,0.451c0.426,0,0.793-0.15,1.102-0.451
			c0.313-0.301,0.469-0.66,0.469-1.078c0-0.273-0.072-0.525-0.217-0.756s-0.338-0.414-0.58-0.551
			c-0.238-0.137-0.496-0.205-0.773-0.205c-0.27,0-0.525,0.068-0.768,0.205s-0.436,0.32-0.58,0.551s-0.217,0.482-0.217,0.756
			C93.348,89.128,93.504,89.487,93.816,89.788z"/>
		<path d="M105.189,88.763l-0.006,3.176v0.434c0,0.77-0.273,1.428-0.82,1.975c-0.254,0.254-0.594,0.455-1.02,0.604
			c-0.398,0.141-0.793,0.211-1.184,0.211h-0.328c-0.891-0.02-1.6-0.291-2.127-0.814c-0.355-0.363-0.57-0.682-0.645-0.955
			l1.787-1.037c0.02,0.309,0.143,0.57,0.369,0.785s0.496,0.322,0.809,0.322c0.246,0,0.471-0.07,0.674-0.211
			c0.199-0.137,0.342-0.313,0.428-0.527l0.006-0.023l0.012-0.029c0.008-0.027,0.016-0.055,0.023-0.082
			c0.016-0.047,0.025-0.094,0.029-0.141v-0.018l0.006-0.018l0.006-0.023v-0.035h0.006v-0.615l-0.047,0.023l-0.047,0.018
			c-0.391,0.16-0.801,0.24-1.23,0.24c-0.57,0-1.104-0.143-1.6-0.428c-0.496-0.277-0.895-0.666-1.195-1.166s-0.451-1.057-0.451-1.67
			c0-0.465,0.088-0.895,0.264-1.289c0.168-0.391,0.406-0.738,0.715-1.043c0.301-0.289,0.648-0.514,1.043-0.674
			c0.398-0.16,0.807-0.24,1.225-0.24c0.727,0,1.266,0.094,1.617,0.281C104.629,86.272,105.189,87.263,105.189,88.763z M100.941,89.8
			c0.309,0.301,0.664,0.451,1.066,0.451c0.406,0,0.764-0.15,1.072-0.451c0.305-0.297,0.457-0.654,0.457-1.072
			c0-0.266-0.07-0.516-0.211-0.75s-0.328-0.418-0.563-0.551c-0.238-0.133-0.49-0.199-0.756-0.199s-0.514,0.066-0.744,0.199
			c-0.234,0.133-0.424,0.316-0.568,0.551c-0.141,0.234-0.211,0.484-0.211,0.75C100.484,89.146,100.637,89.503,100.941,89.8z"/>
		<path d="M107.299,84.55c-0.086,0.145-0.203,0.262-0.352,0.352s-0.313,0.135-0.492,0.135s-0.342-0.043-0.486-0.129
			c-0.148-0.09-0.266-0.209-0.352-0.357c-0.09-0.156-0.135-0.322-0.135-0.498c0-0.18,0.043-0.344,0.129-0.492
			c0.094-0.152,0.213-0.271,0.357-0.357s0.307-0.129,0.486-0.129s0.344,0.043,0.492,0.129c0.145,0.086,0.262,0.205,0.352,0.357
			c0.086,0.148,0.129,0.313,0.129,0.492C107.428,84.239,107.385,84.405,107.299,84.55z M107.422,85.751v6.006h-1.869v-6
			L107.422,85.751z"/>
		<path d="M114.043,87.438c0.176,0.395,0.264,0.816,0.264,1.266v0.053c0,0.02-0.002,0.041-0.006,0.064l-0.012,0.1h-0.727v0.012
			h-4.031c0.047,0.328,0.189,0.611,0.428,0.85c0.301,0.297,0.652,0.445,1.055,0.445c0.406,0,0.758-0.148,1.055-0.445l0.012-0.012
			l0.018-0.023l0.018-0.018l0.012-0.018l1.008,1.441c-0.289,0.234-0.582,0.412-0.879,0.533c-0.398,0.156-0.813,0.234-1.242,0.234
			c-0.582,0-1.123-0.139-1.623-0.416c-0.512-0.281-0.916-0.666-1.213-1.154c-0.305-0.488-0.457-1.037-0.457-1.646
			c0-0.457,0.088-0.879,0.264-1.266c0.176-0.391,0.418-0.73,0.727-1.02c0.313-0.297,0.664-0.521,1.055-0.674
			c0.402-0.156,0.818-0.234,1.248-0.234s0.844,0.078,1.242,0.234c0.395,0.152,0.748,0.375,1.061,0.668
			C113.625,86.698,113.867,87.04,114.043,87.438z M111.014,87.204c-0.262,0-0.508,0.066-0.738,0.199
			c-0.141,0.086-0.277,0.207-0.41,0.363h2.297c-0.133-0.156-0.27-0.277-0.41-0.363C111.521,87.271,111.275,87.204,111.014,87.204z"
			/>
		<path d="M115.549,89.858c0.371,0.371,0.824,0.557,1.359,0.557c0.559,0,0.838-0.164,0.838-0.492c0-0.172-0.154-0.299-0.463-0.381
			c-0.219-0.051-0.566-0.139-1.043-0.264c-0.387-0.102-0.713-0.289-0.979-0.563c-0.262-0.27-0.393-0.684-0.393-1.242
			c0-0.43,0.107-0.793,0.322-1.09c0.219-0.297,0.502-0.516,0.85-0.656c0.355-0.145,0.744-0.217,1.166-0.217
			c0.238,0,0.48,0.033,0.727,0.1c0.266,0.082,0.504,0.184,0.715,0.305c0.23,0.129,0.434,0.273,0.609,0.434l-1.031,1.025
			c-0.301-0.227-0.629-0.34-0.984-0.34c-0.426,0-0.639,0.119-0.639,0.357c0,0.215,0.158,0.365,0.475,0.451
			c0.348,0.094,0.697,0.182,1.049,0.264c0.387,0.098,0.709,0.277,0.967,0.539c0.262,0.266,0.393,0.684,0.393,1.254
			c0,0.426-0.113,0.793-0.34,1.102c-0.227,0.313-0.529,0.545-0.908,0.697c-0.379,0.16-0.771,0.24-1.178,0.24
			c-0.34,0-0.646-0.027-0.92-0.082c-0.273-0.051-0.529-0.137-0.768-0.258c-0.246-0.121-0.504-0.283-0.773-0.486L115.549,89.858z"/>
		<path d="M119.926,90.298c0.102-0.164,0.232-0.291,0.393-0.381c0.164-0.094,0.338-0.141,0.521-0.141s0.357,0.047,0.521,0.141
			c0.16,0.098,0.289,0.227,0.387,0.387c0.098,0.156,0.146,0.328,0.146,0.516c0,0.313-0.102,0.57-0.305,0.773
			c-0.207,0.207-0.457,0.311-0.75,0.311c-0.195,0-0.373-0.047-0.533-0.141c-0.164-0.094-0.293-0.225-0.387-0.393
			c-0.094-0.172-0.141-0.355-0.141-0.551C119.779,90.628,119.828,90.454,119.926,90.298z"/>
	</g>
</g>
</svg>
