<?xml version="1.0" encoding="utf-8"?>
<!-- Generator: Adobe Illustrator 16.0.0, SVG Export Plug-In . SVG Version: 6.00 Build 0)  -->
<!DOCTYPE svg PUBLIC "-//W3C//DTD SVG 1.1//EN" "http://www.w3.org/Graphics/SVG/1.1/DTD/svg11.dtd">
<svg version="1.1" id="Capa_1" xmlns="http://www.w3.org/2000/svg" xmlns:xlink="http://www.w3.org/1999/xlink" x="0px" y="0px"
	 width="500px" height="328.125px" viewBox="0 0 500 328.125" enable-background="new 0 0 500 328.125" xml:space="preserve">
<g>
	<path id="mail" d="M437.5,0h-375C27.984,0,0,28,0,62.5v203.125c0,34.517,27.984,62.5,62.5,62.5h375c34.516,0,62.5-27.983,62.5-62.5
		V62.5C500,28,472.016,0,437.5,0z M31.25,82.031l109.359,82.031L31.25,246.094V82.031z M468.75,265.625
		c0,17.25-14.031,31.25-31.25,31.25h-375c-17.234,0-31.25-14-31.25-31.25l122.375-91.797l68.25,51.203
		c8.328,6.219,18.219,9.375,28.125,9.375c9.891,0,19.781-3.141,28.109-9.375l68.266-51.203L468.75,265.625L468.75,265.625z
		 M468.75,246.094l-109.375-82.031L468.75,82.031V246.094z M268.734,212.531c-5.453,4.094-11.922,6.25-18.734,6.25
		s-13.297-2.172-18.75-6.25l-64.609-48.469l-13.016-9.766L31.25,62.516V62.5c0-17.234,14.016-31.25,31.25-31.25h375
		c17.219,0,31.25,14.016,31.25,31.25L268.734,212.531z"/>
</g>
</svg>
